# xmcd
#
# Track frame offsets:
#        150
#        32232
#        57310
#        94512
#        119975
#        139422
#        163782
#        192997
#        229222
#
# Disc length: 3457 seconds
#
# Revision: 2
# Processed by: cddbd v1.5.1PL0 Copyright (c) Steve Scherf et al.
# Submitted via: ExactAudioCopy v0.95a4
#
DISCID=860d7f09
DTITLE=Dimitri from Paris - Sacre Bleu [CD2]
DYEAR=1900
DGENRE=
TTITLE0=Love Love Mode
TTITLE1=Sacre Francais
TTITLE2=Dirty Larry
TTITLE3=Sacre Francais
TTITLE4=Toujours l'amore
TTITLE5=Une Very Stylish Fille
TTITLE6=Free Ton Style
TTITLE7=Back in the Daze
TTITLE8=Souvenirs de Paris
EXTD=
EXTT0=
EXTT1=Ready made happy charm fool mix\n
EXTT2=Crue L Grand Orchestra remix\n
EXTT3=The Bob Sinclair Paradise Mix\n
EXTT4=
EXTT5=
EXTT6=Monsieur D's Classique Extension\n
EXTT7=
EXTT8=From La Yellow Collection\n
PLAYORDER=
